<svg width="384" height="773" viewBox="0 0 384 773" fill="none" xmlns="http://www.w3.org/2000/svg">
<path d="M-222.747 601.443C-118.236 720.095 84.2828 624.437 172.478 561.776C243.295 514.584 378.043 394.039 350.503 289.394C322.962 184.749 121.489 152.214 24.1952 149.027C-107.528 161.151 -376.791 204.023 -400.059 278.512C-423.326 353.001 -275.995 345.39 -199.421 332.273C-63.9733 275.381 213.018 193.17 237.404 319.467C261.79 445.764 54.1463 449.841 -52.724 436.093C-152.945 441.771 -327.258 482.79 -222.747 601.443Z" fill="#FFB649"/>
<path d="M97.6013 772.57H-158.023C-190.681 772.57 -217.155 746.097 -217.155 713.438V59.132C-217.155 26.4733 -190.678 0 -158.023 0H97.6013C130.26 0 156.733 26.4765 156.733 59.132V713.438C156.733 746.097 130.26 772.57 97.6013 772.57Z" fill="#150C00"/>
<path d="M97.8196 752.496H-158.241C-177.974 752.496 -193.971 736.499 -193.971 716.767V55.4638C-193.971 35.7313 -177.974 19.7344 -158.241 19.7344H97.8196C117.552 19.7344 133.549 35.7313 133.549 55.4638V716.767C133.549 736.499 117.552 752.496 97.8196 752.496Z" fill="url(#paint0_linear_206_955)"/>
<path d="M-120.302 4.90234C-121.407 8.16977 -122.025 11.7618 -122.025 15.5379V26.4637C-122.025 41.4433 -112.388 53.5861 -100.498 53.5861H32.4339C44.3239 53.5861 53.9609 41.4433 53.9609 26.4637V15.5379C53.9609 11.7618 53.3461 8.16977 52.2382 4.90234H-120.302Z" fill="#6A59E3"/>
<g opacity="0.64">
<path d="M11.8958 34.1904H-79.9635C-80.8966 34.1904 -81.655 33.4321 -81.655 32.499V25.9922C-81.655 25.0591 -80.8966 24.3008 -79.9635 24.3008H11.8927C12.8258 24.3008 13.5841 25.0591 13.5841 25.9922V32.499C13.5872 33.4352 12.8289 34.1904 11.8958 34.1904Z" fill="#F2F2F2"/>
</g>
<path d="M58.1175 34.6836H55.6833V40.3072H58.1175V34.6836Z" fill="#4D3EDD"/>
<path d="M61.7469 32.5234H59.3127V40.3066H61.7469V32.5234Z" fill="#4D3EDD"/>
<path d="M65.3822 30.75H62.948V40.3026H65.3822V30.75Z" fill="#4D3EDD"/>
<path d="M69.0121 28.0586H66.5779V40.2982H69.0121V28.0586Z" fill="#4D3EDD"/>
<path d="M86.8122 37.9867C86.8122 39.235 85.8043 40.2462 84.5591 40.2462C83.3108 40.2462 82.3027 39.235 82.3027 37.9867C82.3027 36.7416 83.3108 35.7305 84.5591 35.7305C85.8043 35.7305 86.8122 36.7416 86.8122 37.9867Z" fill="#4D3EDD"/>
<path d="M80.9015 36.4992C82.3651 33.4502 86.3721 33.2505 88.0761 36.209C88.385 36.7457 89.2152 36.262 88.9031 35.7252C86.8621 32.1832 81.8533 32.3049 80.0651 36.0155C79.7999 36.571 80.6331 37.0609 80.9015 36.4992Z" fill="#4D3EDD"/>
<path d="M78.9784 35.2344C81.2222 30.5626 87.395 30.2849 90.0008 34.8068C90.3098 35.3436 91.1399 34.8599 90.8278 34.32C87.8881 29.2176 80.7104 29.4142 78.1451 34.7506C77.8799 35.3061 78.71 35.793 78.9784 35.2344Z" fill="#4D3EDD"/>
<path d="M77.5526 33.2383C80.4144 27.855 88.2911 27.6928 91.5554 32.7858C91.8894 33.307 92.7257 32.8233 92.3855 32.3021C88.7436 26.6286 79.9369 26.7128 76.7194 32.7546C76.4323 33.3007 77.2624 33.7876 77.5526 33.2383Z" fill="#4D3EDD"/>
<path d="M116.516 32.7618H114.959V30.4961H98.3506V37.858H114.959V35.5923H116.516V32.7618Z" fill="#4D3EDD"/>
<path d="M114.151 31.1133H99.1367V37.2425H114.151V31.1133Z" fill="#4D3EDD"/>
<path d="M113.692 31.4414H99.4648V36.9121H113.692V31.4414Z" fill="#4D3EDD"/>
<path d="M119.084 154.395C119.084 162.999 112.044 170.039 103.437 170.039H75.6587C67.0548 170.039 60.0144 162.999 60.0144 154.395V126.617C60.0144 118.013 67.0548 110.973 75.6587 110.973H103.437C112.04 110.973 119.084 118.013 119.084 126.617V154.395Z" fill="white"/>
<path d="M89.552 149.534C85.7416 149.534 82.6582 146.448 82.6582 142.644C82.6582 138.836 85.7447 135.75 89.552 135.75C93.3562 135.75 96.4425 138.836 96.4425 142.644C96.4425 146.448 93.3562 149.534 89.552 149.534Z" fill="#3858AB"/>
<path d="M92.4943 142.001C91.6673 142.001 90.9963 141.33 90.9963 140.506C90.9963 139.679 91.6673 139.008 92.4943 139.008C93.3213 139.008 93.9922 139.679 93.9922 140.506C93.9922 141.33 93.3213 142.001 92.4943 142.001Z" fill="#4D3EDD"/>
<path d="M107.263 129.777H105.374C105.378 129.743 105.393 129.715 105.393 129.68C105.393 128.86 104.728 128.195 103.908 128.195H100.222C99.4044 128.195 98.7398 128.86 98.7398 129.68C98.7398 129.715 98.7585 129.743 98.7585 129.777H96.602C95.4692 129.777 94.1335 128.944 93.6311 127.927L93.3908 127.437C92.8915 126.419 91.5527 125.586 90.4198 125.586H80.4365C79.3037 125.586 77.968 126.419 77.4656 127.437L77.2253 127.927C76.7229 128.944 75.3872 129.777 74.2544 129.777H71.8327C70.6998 129.777 69.7729 130.704 69.7729 131.837V155.23C69.7729 156.363 70.6998 157.29 71.8327 157.29H107.259C108.392 157.29 109.319 156.363 109.319 155.23V131.837C109.322 130.704 108.395 129.777 107.263 129.777ZM89.5523 151.054C84.8993 151.054 81.1294 147.285 81.1294 142.635C81.1294 137.985 84.8993 134.215 89.5523 134.215C94.2022 134.215 97.9721 137.985 97.9721 142.635C97.9721 147.285 94.2022 151.054 89.5523 151.054Z" fill="#3858AB"/>
<path d="M44.2464 154.395C44.2464 162.999 37.2059 170.039 28.5989 170.039H0.821087C-7.78282 170.039 -14.8232 162.999 -14.8232 154.395V126.617C-14.8232 118.013 -7.78282 110.973 0.821087 110.973H28.5989C37.2059 110.973 44.2464 118.013 44.2464 126.617V154.395Z" fill="white"/>
<path d="M33.0957 123.914C33.0957 123.212 32.509 122.625 31.8068 122.625C20.3162 122.625 8.8256 122.625 -2.665 122.625C-3.36717 122.625 -3.95386 123.212 -3.95386 123.914C-3.95386 135.423 -3.95386 146.936 -3.95386 158.445C-3.95386 159.147 -3.36717 159.734 -2.665 159.734C8.8256 159.734 20.3162 159.734 31.8068 159.734C32.1594 159.734 32.4216 159.603 32.6245 159.419C32.6557 159.397 32.6869 159.378 32.715 159.35C32.7399 159.325 32.7555 159.294 32.7774 159.266C32.9615 159.063 33.0957 158.798 33.0957 158.445C33.0957 146.933 33.0957 135.423 33.0957 123.914ZM13.2103 125.2C18.9805 125.2 24.7508 125.2 30.5179 125.2C30.5179 126.401 30.5179 127.603 30.5179 128.804C30.5179 132.93 30.5179 137.052 30.5179 141.175C30.5179 146.502 30.5179 151.826 30.5179 157.153C19.8855 157.153 9.2532 157.153 -1.3792 157.153C-1.3792 155.951 -1.3792 154.75 -1.3792 153.549C-1.3792 149.879 -1.3792 146.209 -1.3792 142.539C-1.3792 136.759 -1.3792 130.979 -1.3792 125.2C-0.180831 125.2 1.02061 125.2 2.21898 125.2C5.88274 125.2 9.54963 125.2 13.2103 125.2Z" fill="#B9D669"/>
<path d="M0.624512 154.409V141.908L7.21554 134.462L11.828 145.909L17.9759 139.18L21.0529 144.632L28.5209 132.074V154.409H0.624512Z" fill="#B9D669"/>
<path d="M119.084 257.445C119.084 266.049 112.044 273.089 103.437 273.089H75.6587C67.0548 273.089 60.0144 266.049 60.0144 257.445V229.664C60.0144 221.06 67.0548 214.02 75.6587 214.02H103.437C112.04 214.02 119.084 221.06 119.084 229.664V257.445Z" fill="white"/>
<path d="M98.147 224.078H75.9834V261.858H104.835V231.995L98.147 224.078Z" fill="#D8CFCF"/>
<path d="M95.0923 228.707H78.1497V229.862H95.0923V228.707Z" fill="#4D3EDD"/>
<path d="M102.535 235.641H78.1492V236.795H102.535V235.641Z" fill="#4D3EDD"/>
<path d="M102.535 242.562H78.1497V243.717H102.535V242.562Z" fill="#4D3EDD"/>
<path d="M102.535 249.484H78.1497V250.639H102.535V249.484Z" fill="#4D3EDD"/>
<path d="M102.535 256.418H78.1497V257.573H102.535V256.418Z" fill="#4D3EDD"/>
<path d="M44.2464 257.445C44.2464 266.049 37.2059 273.089 28.5989 273.089H0.821087C-7.78282 273.089 -14.8232 266.049 -14.8232 257.445V229.664C-14.8232 221.06 -7.78282 214.02 0.821087 214.02H28.5989C37.2059 214.02 44.2464 221.06 44.2464 229.664V257.445Z" fill="#1DA1F2"/>
<path d="M13.9655 237.16C13.9655 241.869 10.1487 245.682 5.44263 245.682C0.733411 245.682 -3.08325 241.866 -3.08325 237.16C-3.08325 232.453 0.733411 228.637 5.44263 228.637C10.1518 228.637 13.9655 232.453 13.9655 237.16Z" fill="#EEDE6B"/>
<path d="M30.7709 244.482C31.1828 243.364 31.4138 242.154 31.4138 240.89C31.4138 235.104 26.7264 230.41 20.9374 230.41C16.6183 230.41 12.917 233.016 11.313 236.745C10.4641 236.446 9.5653 236.274 8.61659 236.274C4.41606 236.274 0.961419 239.485 0.577567 243.592C-2.96761 244.507 -5.58594 247.456 -5.58594 250.932C-5.58594 255.133 -1.76299 258.572 2.90565 258.572H26.2426C30.9144 258.572 34.7311 255.133 34.7311 250.932C34.7311 248.223 33.1458 245.839 30.7709 244.482Z" fill="white"/>
<path d="M119.084 360.472C119.084 369.076 112.044 376.116 103.437 376.116H75.6587C67.0548 376.116 60.0144 369.076 60.0144 360.472V332.691C60.0144 324.087 67.0548 317.047 75.6587 317.047H103.437C112.04 317.047 119.084 324.087 119.084 332.691V360.472Z" fill="#1DA1F2"/>
<path d="M90.4946 330.579C84.5995 339.507 78.7044 348.439 72.8093 357.367C71.8918 358.759 74.1232 360.048 75.0345 358.668C80.9296 349.737 86.8247 340.808 92.7198 331.88C93.6373 330.488 91.4059 329.199 90.4946 330.579Z" fill="white"/>
<path d="M88.7538 330.579C94.6489 339.507 100.544 348.439 106.439 357.367C107.357 358.759 105.125 360.048 104.214 358.668C98.3189 349.737 92.4238 340.808 86.5287 331.88C85.6081 330.488 87.8426 329.199 88.7538 330.579Z" fill="white"/>
<path d="M71.5079 355.547C83.9441 355.547 96.3772 355.547 108.813 355.547C110.474 355.547 110.474 352.973 108.813 352.973C96.3803 352.973 83.9441 352.973 71.5079 352.973C69.8476 352.973 69.8476 355.547 71.5079 355.547Z" fill="white"/>
<g opacity="0.58">
<path d="M124.543 703.084C124.543 711.142 119.013 717.733 112.25 717.733H-173.358C-180.117 717.733 -185.651 711.142 -185.651 703.084V655.895C-185.651 647.837 -180.117 641.246 -173.358 641.246H112.25C119.01 641.246 124.543 647.837 124.543 655.895V703.084Z" fill="white"/>
</g>
<path d="M114.697 693.297C114.697 701.851 107.701 708.854 99.1435 708.854H71.5248C62.9708 708.854 55.9709 701.851 55.9709 693.297V665.679C55.9709 657.125 62.9677 650.125 71.5248 650.125H99.1435C107.697 650.125 114.697 657.122 114.697 665.679V693.297Z" fill="white"/>
<path d="M98.5723 668.852L77.1983 662.261C76.0748 661.918 75.1573 662.592 75.1573 663.769V668.331C75.1573 668.568 75.2197 668.802 75.2884 669.037C75.2884 674.669 75.2884 680.296 75.2884 685.932C74.2367 685.442 72.9509 685.152 71.5497 685.152C68.0077 685.152 65.1396 686.984 65.1396 689.247C65.1396 691.506 68.0077 693.341 71.5497 693.341C75.0887 693.341 77.9567 691.509 77.9567 689.247C77.9567 689.181 77.9317 689.128 77.9254 689.065C77.9348 689.012 77.9567 688.978 77.9567 688.925C77.9567 683.036 77.9567 677.144 77.9567 671.255L97.9451 676.838C97.9451 681.688 97.9451 686.528 97.9451 691.378C96.8934 690.891 95.6076 690.598 94.2064 690.598C90.6644 690.598 87.7963 692.43 87.7963 694.692C87.7963 696.952 90.6644 698.787 94.2064 698.787C97.7453 698.787 100.613 696.955 100.613 694.692C100.613 694.627 100.588 694.57 100.582 694.511C100.591 694.458 100.613 694.424 100.613 694.371C100.613 688.064 100.613 681.754 100.613 675.447C100.613 674.217 100.613 672.984 100.613 671.758V671.617C100.616 670.444 99.6958 669.199 98.5723 668.852Z" fill="url(#paint1_radial_206_955)"/>
<path d="M38.8941 693.297C38.8941 701.851 31.8973 708.854 23.3402 708.854H-4.27842C-12.8324 708.854 -19.8323 701.851 -19.8323 693.297V665.679C-19.8323 657.125 -12.8355 650.125 -4.27842 650.125H23.3402C31.8942 650.125 38.8941 657.122 38.8941 665.679V693.297Z" fill="url(#paint2_radial_206_955)"/>
<path d="M30.362 676.376C30.362 667.42 23.1031 660.164 14.1497 660.164H4.91545C-4.03798 660.164 -11.2969 667.423 -11.2969 676.376C-11.2969 685.327 -4.03798 692.586 4.91545 692.586H14.1497C14.7146 692.586 15.2701 692.557 15.8193 692.501L25.578 702.029L22.8317 690.048C27.3505 687.177 30.362 682.131 30.362 676.376Z" fill="#CCEEFF"/>
<path d="M42.3295 364.045C42.3295 370.308 37.249 375.389 30.9825 375.389H-1.56388C-7.83035 375.389 -12.9109 370.308 -12.9109 364.045V331.499C-12.9109 325.232 -7.83035 320.148 -1.56388 320.148H30.9825C37.2458 320.148 42.3295 325.229 42.3295 331.499V364.045Z" fill="url(#paint3_radial_206_955)"/>
<path d="M22.7029 326.938H6.71531C-0.375037 326.938 -6.12036 332.686 -6.12036 339.773V355.761C-6.12036 362.848 -0.375037 368.596 6.71531 368.596H22.7029C29.7932 368.596 35.5386 362.851 35.5386 355.761V339.773C35.5386 332.686 29.7932 326.938 22.7029 326.938ZM31.5409 354.229C31.5409 359.958 26.8972 364.599 21.1706 364.599H8.25074C2.52104 364.599 -2.12266 359.958 -2.12266 354.229V341.309C-2.12266 335.582 2.52104 330.938 8.25074 330.938H21.1706C26.8972 330.938 31.5409 335.585 31.5409 341.309V354.229Z" fill="white"/>
<path d="M15.2691 336.867C9.20864 336.867 4.29346 341.779 4.29346 347.84C4.29346 353.897 9.20552 358.812 15.2691 358.812C21.3296 358.812 26.2417 353.897 26.2417 347.84C26.2417 341.779 21.3296 336.867 15.2691 336.867ZM15.2691 354.443C11.621 354.443 8.66563 351.488 8.66563 347.843C8.66563 344.195 11.621 341.242 15.2691 341.242C18.9142 341.242 21.8695 344.195 21.8695 347.843C21.8695 351.485 18.9142 354.443 15.2691 354.443Z" fill="white"/>
<path d="M28.2732 336.695C28.2732 338.237 27.0218 339.485 25.4802 339.485C23.9385 339.485 22.6902 338.237 22.6902 336.695C22.6902 335.154 23.9385 333.902 25.4802 333.902C27.0187 333.905 28.2732 335.157 28.2732 336.695Z" fill="white"/>
<path d="M118.739 467.167C118.739 473.793 113.371 479.157 106.749 479.157H72.3548C65.7326 479.157 60.3618 473.79 60.3618 467.167V432.77C60.3618 426.148 65.7326 420.777 72.3548 420.777H106.749C113.374 420.777 118.739 426.148 118.739 432.77V467.167Z" fill="#007BB5"/>
<path d="M69.1097 442.879H77.8728V471.066H69.1097V442.879ZM73.4913 428.867C76.2906 428.867 78.5656 431.145 78.5656 433.951C78.5656 436.753 76.2906 439.025 73.4913 439.025C70.6826 439.025 68.4138 436.753 68.4138 433.951C68.4138 431.145 70.6858 428.867 73.4913 428.867Z" fill="white"/>
<path d="M83.3652 442.883H91.7694V446.741H91.8911C93.0583 444.522 95.9169 442.188 100.18 442.188C109.052 442.188 110.69 448.023 110.69 455.61V471.07H101.934V457.364C101.934 454.096 101.878 449.889 97.3805 449.889C92.8242 449.889 92.1251 453.453 92.1251 457.13V471.07H83.3683L83.3652 442.883Z" fill="white"/>
<path d="M43.484 564.2C43.484 570.729 38.1912 576.022 31.6626 576.022H-2.24746C-8.77607 576.022 -14.0688 570.732 -14.0688 564.2V530.293C-14.0688 523.765 -8.77607 518.469 -2.24746 518.469H31.6626C38.1881 518.469 43.484 523.765 43.484 530.293V564.2Z" fill="white"/>
<path fill-rule="evenodd" clip-rule="evenodd" d="M34.041 547.245C34.041 557.921 25.3872 566.575 14.7111 566.575C4.0381 566.575 -4.61572 557.924 -4.61572 547.245C-4.61572 536.569 4.0381 527.918 14.7111 527.918C25.3872 527.918 34.041 536.569 34.041 547.245Z" fill="#BC081C"/>
<path fill-rule="evenodd" clip-rule="evenodd" d="M12.5608 556.293C14.1586 558.124 16.8175 558.814 19.1487 558.103C19.6293 557.956 20.1068 557.784 20.5687 557.585C21.4706 557.194 22.3163 556.686 23.0434 556.021C25.1187 554.127 26.2485 551.743 26.7728 549.034C27.4531 545.51 26.8351 542.224 24.61 539.4C23.2587 537.684 21.3489 536.557 19.3079 535.845C16.5429 534.878 13.4346 534.766 10.6384 535.664C9.83641 535.923 9.03125 536.276 8.29788 536.691C5.67956 538.18 3.6636 540.576 2.84285 543.488C2.62439 544.265 2.49325 545.077 2.41523 545.879C2.22798 547.82 2.6587 549.745 3.53875 551.474C3.67918 551.749 3.85396 551.998 3.98503 552.276C4.29711 552.935 4.76828 553.587 5.34874 554.03C5.61713 554.236 5.948 554.42 6.30064 554.395C6.78748 554.361 6.90912 553.893 7.04331 553.49C7.18998 553.044 7.23992 552.576 7.33978 552.117C7.42716 551.702 7.43966 551.449 7.18064 551.081C5.12719 548.166 5.83245 543.448 8.36026 541.082C10.654 538.944 13.2536 538.317 16.1653 538.729C18.7617 539.097 21.0743 540.801 22.0916 543.245C22.5067 544.246 22.6409 545.607 22.6534 546.671C22.6752 548.207 22.4318 549.58 21.8357 551.015C21.3302 552.242 20.5624 553.428 19.492 554.239C17.916 555.428 14.6081 555.943 13.9402 553.468C13.7748 552.86 13.7561 552.067 13.8778 551.452C14.1898 549.898 14.7859 548.422 15.1448 546.884C15.3352 546.063 15.46 545.236 15.2353 544.399C14.9731 543.41 14.3584 542.774 13.3317 542.633C12.2394 542.483 11.2158 542.823 10.5822 543.672C9.25905 545.445 9.09056 547.47 9.73968 549.555C9.87699 550.004 9.92696 550.388 9.81149 550.856C9.18734 553.387 8.6443 555.94 7.99207 558.462C7.54892 560.175 7.39914 561.938 7.4834 563.701C7.50525 564.191 7.51772 564.684 7.63007 565.165C7.70497 565.486 7.82354 565.945 8.13873 566.114C8.57564 566.345 8.94702 565.789 9.14987 565.486C9.95815 564.291 10.5916 562.959 11.0691 561.601C11.3812 560.718 11.6214 559.813 11.8586 558.908C11.9491 558.589 12.411 556.945 12.5608 556.293Z" fill="white"/>
<path d="M44.2459 467.026C44.2459 473.726 38.8127 479.159 32.1124 479.159H-2.69025C-9.3905 479.159 -14.8237 473.726 -14.8237 467.026V432.223C-14.8237 425.523 -9.3905 420.09 -2.69025 420.09H32.1124C38.8127 420.09 44.2459 425.523 44.2459 432.223V467.026Z" fill="white"/>
<defs>
<linearGradient id="paint0_linear_206_955" x1="-67.9189" y1="-12.3326" x2="-0.382049" y2="701.309" gradientUnits="userSpaceOnUse">
<stop offset="0.3955" stop-color="#FFDCEC"/>
<stop offset="0.5181" stop-color="#F6DBEF"/>
<stop offset="0.7144" stop-color="#DFD7F5"/>
<stop offset="0.9297" stop-color="#BED2FF"/>
</linearGradient>
<radialGradient id="paint1_radial_206_955" cx="0" cy="0" r="1" gradientUnits="userSpaceOnUse" gradientTransform="translate(82.8771 680.477) scale(18.0239 18.0239)">
<stop offset="0.0969" stop-color="#FFD879"/>
<stop offset="0.1539" stop-color="#FCCB76"/>
<stop offset="0.2583" stop-color="#F5AA6C"/>
<stop offset="0.3976" stop-color="#E9755E"/>
<stop offset="0.449" stop-color="#E45F58"/>
<stop offset="0.6786" stop-color="#D22A9C"/>
<stop offset="1" stop-color="#6968DF"/>
</radialGradient>
<radialGradient id="paint2_radial_206_955" cx="0" cy="0" r="1" gradientUnits="userSpaceOnUse" gradientTransform="translate(9.53154 679.49) scale(29.3632 29.3632)">
<stop offset="0.2602" stop-color="#36B649"/>
<stop offset="0.7602" stop-color="#57C965"/>
</radialGradient>
<radialGradient id="paint3_radial_206_955" cx="0" cy="0" r="1" gradientUnits="userSpaceOnUse" gradientTransform="translate(3.27207 379.668) scale(73.1987 73.1988)">
<stop offset="0.0969" stop-color="#FFD879"/>
<stop offset="0.1539" stop-color="#FCCB76"/>
<stop offset="0.2583" stop-color="#F5AA6C"/>
<stop offset="0.3976" stop-color="#E9755E"/>
<stop offset="0.449" stop-color="#E45F58"/>
<stop offset="0.6786" stop-color="#D22A9C"/>
<stop offset="1" stop-color="#6968DF"/>
</radialGradient>
</defs>
</svg>
