<svg width="385" height="800" viewBox="0 0 385 800" fill="none" xmlns="http://www.w3.org/2000/svg">
<path d="M-198.554 515.052C-154.579 517.025 -109.103 586.088 -109.103 586.088C-109.103 586.088 -85.5321 618.821 -64.7697 638.36C18.3802 716.611 133.109 591.974 188.369 492.057C253.593 374.126 271.737 143.098 137.191 150.784C89.8736 153.486 72.5707 178.056 38.0084 196.461C-0.538649 216.987 -51.6352 223.08 -85.6319 195.667C-125.307 163.676 -118.478 113.927 -100.965 66.0641C-67.1346 -26.3929 53.7956 -3.00994 147.914 25.8791C224.363 49.3448 261.677 87.8194 309.043 152.252C396.952 271.835 404.337 391.153 351.652 529.905C308.751 642.887 252.085 707.767 141.919 757.455C16.8389 813.871 -92.2909 816.265 -209.199 744.429C-254.974 716.302 -300.479 704.001 -310.358 651.191C-323.009 583.567 -267.281 511.968 -198.554 515.052Z" fill="#FFB649"/>
</svg>
