<svg width="728" height="287" viewBox="0 0 728 287" fill="none" xmlns="http://www.w3.org/2000/svg">
<path d="M148.972 34.3536L108.183 46.1968C93.5676 50.062 81.9344 61.1169 77.3296 75.5162L32.3729 216.096C26.8909 233.238 41.3828 250.15 59.1623 247.358C68.9812 245.816 76.8575 238.425 79.019 228.724L89.7384 180.614C93.3257 164.513 109.702 154.732 125.579 159.207L130.231 160.518C141.337 163.648 153.053 158.129 157.71 147.572L159.83 142.767C166.947 126.638 151.955 109.554 135.038 114.513L132.01 115.401C117.497 119.656 104.063 106.091 108.46 91.6202C109.747 87.3859 112.47 83.7328 116.16 81.29L157.909 53.6548C159.627 52.5178 160.982 50.9115 161.814 49.0269C165.502 40.6669 157.747 31.8057 148.972 34.3536Z" fill="#FFB649"/>
<path d="M243.296 229.882C214.073 198.443 214.571 72.9417 246.18 84.9947C248.784 85.9879 250.245 86.8512 252.811 88.5147C283.02 108.098 312.254 185.142 293.655 222.949C281.334 247.994 262.076 250.086 243.296 229.882Z" fill="#FFB649"/>
<path d="M223.115 55.3034C222.486 60.1062 225.532 64.6974 227.997 67.5426C229.789 69.6107 231.79 71.5646 234.1 73.0319C234.785 73.4671 235.605 73.9464 236.581 74.461C240.516 76.536 243.77 73.1287 247.169 70.2586C253.211 65.1579 255.93 57.8957 252.56 50.7434C247.6 40.2175 224.625 43.7657 223.115 55.3034Z" fill="#FFB649"/>
<path d="M400.976 36C385.638 35.9999 373.604 43.2111 360.62 66.7716C347.635 90.3322 317.504 232.581 360.62 242.502C403.736 252.423 401.705 239.563 401.705 224.865C401.705 214.844 399.442 166.478 398.001 136.712C397.83 133.189 403.105 132.198 404.243 135.537C415.004 167.094 434.951 220.842 446.673 223.077C463.309 226.25 471.686 224.993 491.297 212.39C508.915 201.068 442.073 140.351 428.309 128.13C426.988 126.957 426.957 124.936 428.193 123.674C436.442 115.248 463.984 85.3464 466.027 59.7717C466.906 48.7686 460.4 38.2506 446.673 43.2111C441.019 45.2545 419.972 74.9102 407.106 93.6419C405.182 96.4434 400.366 94.3166 401.088 90.9955C405.775 69.439 411.37 36.0001 400.976 36Z" fill="#FFB649"/>
<path d="M556.179 68.2408C540.382 89.7951 522.9 160.351 513.663 201.598C510.513 215.665 523.526 227.731 537.404 223.826C545.132 221.651 550.693 214.914 552.413 207.072C555.022 195.182 560.509 177.943 571.538 167.24C583.896 155.247 593.301 151.627 612.179 152.756C627.063 153.645 657.775 197.008 670.106 215.318C673.489 220.341 678.978 223.556 685.023 223.918C699.372 224.775 709.337 209.97 703.01 197.062C681.568 153.313 641.278 73.6795 625.689 60.1552C603.996 41.3346 578.962 37.1529 556.179 68.2408Z" fill="#FFB649" stroke="#FFB649"/>
<path d="M575.971 122.763C562.659 112.171 569.515 86.0078 585.527 80.2624C592.987 77.5859 598.979 77.413 605.785 81.4734C615.652 87.3599 618.089 98.6271 614.55 109.558C609.645 124.708 588.432 132.678 575.971 122.763Z" fill="white" stroke="#CECBC9"/>
</svg>
