<svg width="347" height="711" viewBox="0 0 347 711" fill="none" xmlns="http://www.w3.org/2000/svg">
<path d="M473.31 66.1236C462.045 96.5091 458.582 127.426 427.048 135.036C261.569 174.971 266.386 217.353 266.386 217.353C267.162 220.455 270.357 222.31 273.462 221.551C297.618 215.648 392.568 198.307 427.048 279.878C443.921 319.795 446.776 352.238 427.048 390.827C385.539 472.021 265.872 289.881 196.973 349.679C140.4 398.78 132.572 471.902 166.08 538.861C220.175 646.957 384.403 416.882 473.31 498.852C506.285 529.254 518.913 554.635 532.062 597.49C585.101 770.356 196.179 725.678 68.5191 597.49C-75.8817 452.492 36.2039 145.641 145.776 79.5244C255.349 13.4079 517.76 -53.78 473.31 66.1236Z" fill="#FFB649"/>
</svg>
