<svg width="601" height="757" viewBox="0 0 601 757" fill="none" xmlns="http://www.w3.org/2000/svg">
<path d="M178.998 238.063C138.205 340.764 141.657 641.328 147.61 816.015C149.641 875.595 214.276 910.342 265.753 880.274C294.421 863.528 309.664 830.779 308.39 797.602C306.458 747.304 310.479 672.602 343.482 618.29C380.463 557.431 414.335 533.159 491.062 518.032C551.555 506.105 719.591 647.69 787.993 708.141C806.758 724.724 832.074 731.878 856.643 727.034C914.963 715.536 939.435 645.914 900.685 600.837C769.348 448.06 525.235 171.279 448.775 133.374C342.372 80.624 237.833 89.9369 178.998 238.063Z" fill="#FFB649" stroke="#FFB649"/>
<path d="M314.941 435.669C250.642 407.129 250.857 295.286 308.963 255.63C336.032 237.156 359.833 230.229 391.297 239.398C436.911 252.689 458.389 295.246 455.599 342.676C451.734 408.412 375.129 462.384 314.941 435.669Z" fill="white" stroke="#FFB649"/>
</svg>
